<svg width="50" height="52" viewBox="0 0 50 52" fill="none" xmlns="http://www.w3.org/2000/svg">
<path d="M25.0012 16.2508C19.8349 16.2508 15.6258 20.6283 15.6258 26.0012C15.6258 31.3741 19.8349 35.7517 25.0012 35.7517C30.1675 35.7517 34.3767 31.3741 34.3767 26.0012C34.3767 20.6283 30.1675 16.2508 25.0012 16.2508ZM49.0649 24.4269L39.8164 19.6228L43.088 9.42544C43.5275 8.04413 42.2677 6.73391 40.9493 7.20112L31.1441 10.6036L26.515 0.975046C25.8899 -0.325015 24.1125 -0.325015 23.4875 0.975046L18.8681 10.5935L9.05317 7.19096C7.72498 6.73391 6.46516 8.04412 6.9144 9.41528L10.186 19.6126L0.937546 24.4269C-0.312515 25.077 -0.312515 26.9255 0.937546 27.5755L10.186 32.3796L6.9144 42.5871C6.47492 43.9685 7.73475 45.2787 9.05317 44.8115L18.8583 41.409L23.4777 51.0274C24.1027 52.3274 25.8802 52.3274 26.5052 51.0274L31.1246 41.409L40.9297 44.8115C42.2579 45.2685 43.5177 43.9583 43.0685 42.5871L39.7969 32.3898L49.0453 27.5857C50.3149 26.9255 50.3149 25.077 49.0649 24.4269ZM33.8395 35.193C28.9662 40.2613 21.0362 40.2613 16.1629 35.193C11.2896 30.1248 11.2896 21.8776 16.1629 16.8094C21.0362 11.7412 28.9662 11.7412 33.8395 16.8094C38.7128 21.8776 38.7128 30.1248 33.8395 35.193Z" fill="#FED50D"/>
</svg>
